PathFileType	4	(X/Y/Z)	C:/Users/beibeiliu/ov580/test_trc\sequence.29_training_dense_right.trc
DataRate	CameraRate	NumFrames	NumMarkers	Units	OrigDataRate	OrigDataStartFrame	OrigNumFrames
120	120	16	19	mm	120	27	78
Frame#	Time	ThumbCMC			ThumbMCP			ThumbIP			ThumbTip			IndexMCP			IndexPIP			IndexTip			MiddleMCP			MiddlePIP			MiddleTip			RingMCP			RingPIP			RingTip			PinkyMCP			PinkyPIP			PinkyTip			BackHand1			BackHand2			BackHand3	
		X0	Y0	Z0	X1	Y1	Z1	X2	Y2	Z2	X3	Y3	Z3	X4	Y4	Z4	X5	Y5	Z5	X6	Y6	Z6	X7	Y7	Z7	X8	Y8	Z8	X9	Y9	Z9	X10	Y10	Z10	X11	Y11	Z11	X12	Y12	Z12	X13	Y13	Z13	X14	Y14	Z14	X15	Y15	Z15	X16	Y16	Z16	X17	Y17	Z17	X18	Y18	Z18	
26	0.216667	113.461	95.5691	7.93886	99.2422	116.675	0.184628	83.1601	130.81	-9.12153	60.7996	138.449	-15.2703	62.953	107.717	-22.6022	51.3136	121.115	-0.707692	79.0973	111.819	12.1755	48.98	96.3232	-10.8126	48.8122	112.54	16.8106	75.325	100.067	24.6731	41.5331	90.0776	2.69016	52.6804	104.663	22.7402	76.5158	89.7706	26.8645	35.9205	57.8151	9.21644	21.5032	66.0401	3.91957	4.98674	67.5458	1.95114	81.2979	54.8252	2.03644	101.38	45.7575	17.8201	108.658	66.0516	-2.60581	
27	0.225	116.014	90.9259	8.56279	104.528	115.66	-1.55076	86.3088	131.006	-16.2127	72.8715	143.552	-21.345	62.6443	110.774	-24.8373	58.8629	128.308	-5.31084	82.5437	111.672	9.40518	48.9798	103.937	-13.6154	50.2157	120.882	11.6296	78.9403	104.245	18.7204	39.8424	92.9323	-0.187152	51.7733	112.157	17.1676	72.0411	92.5306	25.0754	30.5304	67.9426	5.98509	16.1467	74.0397	5.17082	-1.06329	81.904	-6.05327	70.7369	55.6908	1.80327	94.7481	44.1603	18.8217	98.5788	63.7065	-4.04114	
28	0.233333	106.829	86.1432	6.39595	98.9456	110.524	-8.04907	88.4646	124.12	-18.9158	77.5497	139.733	-30.2572	61.9671	112.382	-30.6014	60.5312	129.238	-11.0603	80.4239	107.043	3.83115	45.7909	106.356	-18.2429	50.5451	125.155	2.40953	74.1062	104.516	16.1793	35.2412	100.215	-5.07791	46.0817	115.128	13.3843	65.5714	96.75	20.1686	22.8931	73.8182	2.10594	8.58068	81.7294	-3.39053	-6.21435	84.9759	-8.42331	63.5631	55.2914	2.50044	80.268	43.2586	22.1779	91.1156	61.5555	-4.58967	
29	0.241667	99.5576	79.286	7.81997	95.2539	102.482	-9.39978	87.1194	117.509	-29.2645	74.4575	127.871	-42.9589	55.5727	103.459	-35.4154	55.5769	122.246	-20.0609	71.5888	105.328	-1.05084	39.6853	101.182	-24.9553	46.1895	120.038	-4.14514	70.2699	101.261	8.31542	28.8582	93.4454	-12.829	40.8599	113.477	2.53669	59.4519	94.4086	11.9321	17.3041	71.2019	-3.03764	0.745437	79.3083	-11.3367	-12.494	81.7997	-17.8215	53.0521	52.4446	2.0614	67.9091	41.0978	24.6591	85.3793	55.6752	0.151663	
30	0.25	97.3245	74.775	4.36493	94.5068	91.717	-17.9345	86.8648	100.349	-36.2568	78.3308	107.354	-52.2886	62.6931	85.1251	-46.3147	53.8895	107.409	-33.511	67.4173	99.7285	-9.96109	41.8792	85.4495	-35.0207	45.0888	110.293	-19.0096	63.6649	94.4393	1.18508	27.2531	81.3405	-26.1405	36.9891	104.305	-16.2618	52.2919	87.9803	4.57852	17.3186	60.9588	-12.6839	4.53143	66.3506	-25.7625	-8.55523	66.8866	-34.6833	50.9794	45.8927	4.53413	64.1766	42.3398	26.0486	82.4816	48.1714	3.9537	
31	0.258333	100.182	70.3384	5.77261	98.2981	77.6158	-24.7078	93.7452	78.2047	-44.3519	87.4821	79.367	-65.7522	71.0847	56.4102	-48.9979	61.1655	84.5688	-49.7584	67.6919	87.3208	-20.9014	50.1076	60.6698	-44.2802	46.8311	88.2586	-35.7563	67.7877	83.5306	-8.41446	37.2613	56.6874	-36.6231	38.6268	82.2986	-31.6943	55.0664	80.7149	-11.3593	25.4304	39.1646	-15.2003	16.7107	38.2904	-31.6657	6.23477	35.5528	-48.376	59.8738	36.4156	6.1445	71.5851	39.7326	32.3076	85.7639	41.8803	10.2891	
32	0.266667	106.977	72.5139	6.8259	105.969	70.1254	-26.3345	104.585	63.5851	-48.1905	98.5174	57.5992	-66.6497	88.2197	37.3898	-46.4365	73.1133	63.528	-56.9557	72.935	76.5871	-34.0355	68.0842	36.0863	-41.9494	58.0404	65.6894	-45.7924	67.6368	71.5965	-14.9106	53.0265	30.9478	-35.0854	48.0285	56.5436	-40.9243	58.1758	65.0664	-14.5048	45.4547	17.5721	-11.9161	34.2023	9.11927	-26.9647	28.175	2.89009	-48.9241	71.8282	26.3502	13.8838	75.3224	38.1384	35.4309	96.5607	38.3727	13.3017	
33	0.275	105.938	73.7511	6.94792	108.07	74.1167	-22.0798	108.829	64.6369	-44.258	109.394	54.1024	-65.1451	104.497	34.4079	-47.0684	84.1094	48.021	-58.4942	73.611	65.0829	-36.9419	83.2486	23.5593	-37.4322	66.2633	47.6059	-47.9213	71.5222	63.2862	-20.7344	69.2856	16.4376	-34.7445	57.7018	38.497	-40.5899	61.4677	51.9586	-17.6603	67.1253	0.992195	-9.44212	62.8206	-10.1535	-23.1989	58.7478	-22.9985	-42.517	89.336	21.7788	17.5608	88.6506	36.0317	36.1053	109.33	45.9518	18.2689	
34	0.283333	103.6	74.2056	9.11509	106.699	77.6003	-21.1239	108.37	69.7777	-38.3404	113.184	63.9246	-62.8942	116.523	38.3254	-41.1761	92.8453	50.0592	-57.1222	77.3218	60.6831	-38.0618	104.164	27.8013	-42.2476	79.7031	39.3239	-48.6661	77.5929	54.4632	-17.8212	94.9703	13.5048	-33.7501	75.1941	26.4789	-41.5165	74.8698	44.9254	-16.3043	95.5225	-3.30935	-10.2972	96.7056	-15.5527	-24.9936	101.882	-24.8115	-41.7292	103.114	22.0217	18.7182	98.0671	35.603	39.6981	116.859	48.9498	18.981	
35	0.291667	95.5314	76.0667	15.9096	98.543	81.9779	-17.5649	102.131	81.5866	-37.9119	107.277	74.4853	-56.762	124.504	57.8541	-43.8784	102.16	51.6997	-54.9153	78.9366	58.4065	-38.0719	117.578	36.7647	-43.4769	89.1944	39.0093	-48.4131	80.4368	46.4135	-17.8973	115.575	18.6525	-33.813	90.48	29.5648	-42.9248	81.961	37.3724	-15.4925	125.637	4.13314	-14.5853	129.685	-1.71485	-26.3547	139.035	-10.9859	-44.133	122.861	31.3678	17.3829	109.61	35.7372	41.9357	121.093	55.4572	23.0342	
36	0.3	90.045	74.9149	15.5231	85.177	80.6009	-11.2211	92.8157	85.8778	-37.4024	95.8525	84.7448	-55.7227	122.274	71.1992	-40.6776	100.266	63.1823	-55.8644	81.3834	52.6367	-37.2956	121.733	55.3608	-43.4683	97.2204	43.8097	-49.2106	84.4258	49.0322	-17.5368	128.243	36.3692	-36.1385	100.827	33.3227	-43.671	91.5635	37.9623	-18.2215	141.192	20.6263	-14.6649	154.463	16.8376	-33.3387	162.664	18.3759	-43.3791	129.477	43.1781	14.8652	120.728	43.2056	36.445	117.6	65.5102	25.9702	
37	0.308333	82.5695	69.3522	17.8141	74.1905	79.3227	-10.886	79.3264	88.1427	-37.0162	83.1471	89.4351	-55.6689	111.794	85.9249	-39.4369	98.127	69.2104	-56.6877	78.4574	55.1634	-36.4934	120.319	68.9678	-45.2686	100.284	48.7512	-51.0423	90.6065	47.0378	-19.1314	132.981	55.4565	-40.2382	106.977	42.6792	-47.4192	96.9133	42.8099	-23.8118	152.556	43.4692	-22.3004	162.823	46.0356	-39.2244	172.159	51.6309	-53.365	134.381	58.14	13.2389	128.49	51.1923	33.3733	115.349	75.8125	19.8792	
38	0.316667	77.6192	68.0871	14.5229	67.0029	74.9443	-13.7085	67.8361	85.0823	-38.5881	68.6736	86.7652	-56.3697	97.081	93.3696	-47.6936	87.2296	71.9605	-60.3186	81.8217	54.4821	-36.5044	114.334	80.8432	-49.0169	98.2732	57.6636	-56.9076	89.5509	50.7846	-24.3891	125.804	73.7338	-48.8858	112.679	53.4077	-55.0742	100.55	48.7931	-28.6756	150.155	70.5205	-27.9403	158.292	73.1589	-43.2388	163.517	81.1861	-60.5021	129.453	75.7797	6.21975	125.069	68.7468	27.2875	107.324	86.0185	16.618	
39	0.325	67.5825	64.6828	6.59955	59.2265	66.7112	-24.0133	59.6207	71.2841	-46.0318	58.4511	70.3038	-64.4711	77.0757	89.1304	-53.6813	79.3929	63.3002	-68.1436	80.7094	48.3976	-39.8954	96.4171	83.2688	-60.9839	97.9801	52.7654	-60.8035	93.9365	50.4445	-28.6633	117.194	81.7425	-58.7149	109.377	56.8555	-59.3099	102.34	53.2331	-31.5226	134.337	94.9953	-40.4717	143.197	97.2494	-58.9707	145.803	98.3474	-79.5182	117.373	94.8519	-4.91369	116.617	85.7463	20.3329	88.176	93.8268	5.54812	
40	0.333333	58.2169	58.8691	-1.6343	53.8784	43.2638	-24.1302	51.3342	36.586	-46.7447	52.075	32.4142	-66.2882	61.7653	59.6244	-66.278	81.2543	38.0714	-67.12	82.9286	41.6015	-34.5548	85.3183	65.6524	-69.536	96.6454	40.2989	-62.3804	92.4075	45.5776	-28.6404	101.054	74.3829	-65.7607	106.909	48.1767	-58.2614	102.837	51.1765	-30.943	111.966	98.2844	-59.0382	118.466	93.5222	-79.0794	123.016	84.1136	-96.466	86.1329	100.2	-25.1711	87.608	103.902	1.31606	66.5835	89.8914	-11.5685	
41	0.341667	52.8337	59.4668	-0.204953	46.7537	35.5678	-13.9936	45.4184	23.7725	-36.676	42.753	9.05482	-52.7268	55.4028	37.2732	-61.1089	74.4127	17.3706	-51.7871	73.5708	31.0659	-25.6222	78.9304	38.7743	-64.9427	93.2758	22.5093	-46.5202	85.5504	42.0375	-20.1014	96.9725	47.183	-62.6616	100.082	29.4733	-45.5858	93.5887	47.7203	-20.4514	106.841	76.5301	-62.6491	110.91	59.0097	-82.5054	117.786	42.581	-88.5759	81.6086	92.3847	-33.2397	82.4124	98.7944	-12.2574	57.0504	84.0194	-17.642	
